<svg width="21" height="21" viewBox="0 0 21 21" fill="none" xmlns="http://www.w3.org/2000/svg">
<path d="M17.7916 3.62992C15.9026 1.74088 13.3931 0.701599 10.7215 0.701599C8.04994 0.701599 5.54038 1.74088 3.65134 3.62992C1.7623 5.51896 0.723022 8.02851 0.723022 10.7001C0.723022 13.3716 1.7623 15.8812 3.65134 17.7702C4.36355 18.4824 5.16747 19.0754 6.03557 19.537C6.03251 19.5034 6.03251 19.4667 6.03251 19.4331V19.4208C6.03557 19.2222 6.03557 19.0235 6.03557 18.8187C5.92247 18.7392 5.81549 18.6536 5.71156 18.5589C5.60458 18.458 5.50676 18.351 5.42117 18.241C5.1155 17.8497 4.92904 17.3973 4.86791 16.9143C4.80678 16.8563 4.74564 16.7982 4.68451 16.7371C4.21989 16.2724 3.8164 15.762 3.47405 15.2179H4.85263V15.2148C4.85263 14.8083 4.85568 14.4017 4.85568 14.0044V13.9677V13.7537H2.74656C2.37975 12.7909 2.18413 11.7607 2.18413 10.697C2.18413 9.61494 2.38281 8.56649 2.7649 7.58835H6.68665C6.60412 8.2272 6.54604 8.89356 6.51853 9.57215C6.85477 9.42848 7.21851 9.35207 7.59143 9.34901C7.70759 9.34901 7.82985 9.34595 7.95824 9.34595C7.97046 9.34595 7.98269 9.34595 7.99492 9.34595C8.02854 8.74073 8.08356 8.15384 8.16303 7.58835H9.15952V7.22154C9.15952 6.82723 9.22677 6.46043 9.35515 6.12725H8.42591C8.56652 5.50368 8.73464 4.92596 8.93332 4.40327C9.20537 3.67883 9.51715 3.11028 9.83505 2.72514C10.156 2.33693 10.4617 2.15965 10.7215 2.15965C10.9813 2.15965 11.287 2.33388 11.6079 2.72514C11.9228 3.10722 12.2346 3.67271 12.5066 4.39104C12.5922 4.39104 12.6808 4.39104 12.7725 4.39104C13.2158 4.39104 13.6712 4.39104 14.0564 4.39104C13.9983 4.21986 13.9402 4.05174 13.8791 3.88668C13.6896 3.38233 13.4756 2.93299 13.2463 2.53868C14.4384 2.90548 15.5389 3.53211 16.4773 4.3941C16.4803 4.3941 16.4864 4.3941 16.4895 4.3941H17.2414H18.4825C18.2685 4.13122 18.0362 3.87446 17.7916 3.62992ZM7.56392 3.88974C7.31021 4.56527 7.09625 5.32028 6.93118 6.1303H3.51073C3.84391 5.60761 4.23823 5.11548 4.68756 4.66614C5.68711 3.6666 6.88839 2.94828 8.19972 2.54479C7.96741 2.93299 7.75344 3.38538 7.56392 3.88974Z" fill="white"/>
<path d="M16.2205 5.27444C16.2113 5.28055 16.1991 5.28972 16.1869 5.29889C16.1838 5.30195 16.1807 5.305 16.1777 5.305C16.1777 5.305 16.1777 5.305 16.1746 5.305C16.089 5.36308 16.0187 5.43338 15.9607 5.50674C15.9117 5.44255 15.8537 5.38448 15.7834 5.33251C15.765 5.31723 15.7497 5.305 15.7345 5.29889C15.7314 5.29583 15.7283 5.29583 15.7253 5.29278C15.6397 5.22553 15.5327 5.18579 15.4227 5.18579H15.2546C15.1445 5.18579 15.0375 5.22247 14.9519 5.29278C14.9489 5.29583 14.9458 5.29583 14.9428 5.29889C14.9305 5.30806 14.9122 5.32029 14.8908 5.33863C14.8236 5.39059 14.7685 5.44561 14.7227 5.5098C14.6646 5.43338 14.5943 5.36308 14.5057 5.30195C14.5057 5.30195 14.5026 5.30195 14.5026 5.29889C14.4996 5.29889 14.4965 5.29583 14.4934 5.29278C14.4812 5.28361 14.469 5.27444 14.4598 5.26832C14.4109 5.2347 14.3559 5.21024 14.2978 5.19802C14.2795 5.19496 14.2611 5.1919 14.2428 5.18885C14.2244 5.18579 14.2061 5.18579 14.1878 5.18579C13.8393 5.18579 13.4847 5.18579 13.1301 5.18579C13.0109 5.18579 12.8917 5.18579 12.7756 5.18579C12.421 5.18579 12.0634 5.18885 11.7088 5.18885C11.6354 5.18885 11.559 5.20719 11.4948 5.24081C10.9293 5.38142 10.4983 5.69015 10.2385 6.12726C10.1927 6.20367 10.1529 6.2862 10.1162 6.36873C10.0796 6.45127 10.0521 6.54297 10.0276 6.63161C10.0093 6.69886 9.99397 6.77222 9.9848 6.84252C9.96646 6.96479 9.95729 7.09012 9.95729 7.2185V7.5853V10.1468C9.76472 10.1468 9.56909 10.1468 9.37958 10.1438C9.08919 10.1438 8.78963 10.1407 8.49313 10.1407C8.30667 10.1407 8.13244 10.1407 7.96738 10.1407C7.90319 10.1407 7.84206 10.1407 7.78092 10.1407C7.71979 10.1407 7.66171 10.1407 7.60363 10.1407C7.57918 10.1407 7.55473 10.1407 7.52722 10.1438C7.37744 10.1499 7.23072 10.1743 7.09011 10.211C7.05037 10.2232 7.00758 10.2355 6.96784 10.2477C6.94033 10.2569 6.90976 10.2691 6.88225 10.2783C6.8364 10.2966 6.79361 10.3149 6.74776 10.3363C6.70496 10.3577 6.66217 10.3791 6.61937 10.4036C6.57658 10.428 6.53684 10.4555 6.49711 10.4831C6.40235 10.5472 6.31676 10.6206 6.23423 10.7001C5.86743 11.0608 5.66568 11.5468 5.66263 12.0634C5.65957 12.6227 5.65651 13.1913 5.65651 13.7446C5.65651 13.8271 5.65651 13.9127 5.65651 13.9952C5.65651 14.1939 5.65651 14.3956 5.65651 14.5974C5.65651 14.7991 5.65651 15.0039 5.65346 15.2057C5.6504 15.6581 5.6504 16.1166 5.64429 16.5689C5.64429 16.572 5.64429 16.5751 5.64429 16.5751C5.64734 16.9999 5.78795 17.4004 6.05083 17.7366C6.11502 17.8191 6.18532 17.8925 6.25868 17.9628C6.30148 18.0025 6.34427 18.0392 6.39012 18.0759C6.52462 18.1829 6.6744 18.2715 6.83334 18.3388C6.83334 18.3846 6.83334 18.4305 6.83334 18.4763C6.83334 18.6383 6.83334 18.7942 6.83334 18.9501C6.83334 19.106 6.83334 19.2588 6.83029 19.4147V19.4178C6.83029 19.4484 6.83029 19.4789 6.83334 19.5095C6.8364 19.5401 6.83946 19.5706 6.84251 19.6012C6.84557 19.6256 6.85168 19.6501 6.8578 19.6715C6.87002 19.7204 6.88531 19.7663 6.90365 19.8091C6.91587 19.8396 6.93116 19.8702 6.9495 19.8977C6.96478 19.9252 6.98312 19.9497 7.00146 19.9741C7.08094 20.075 7.17875 20.1422 7.2674 20.185C7.37132 20.237 7.48136 20.2614 7.59446 20.2614C7.65254 20.2614 7.70756 20.2553 7.75952 20.2431C7.9521 20.1973 8.08659 20.0842 8.15384 20.0291L8.1569 20.0261C8.69793 19.5615 9.25425 19.0846 9.80446 18.62C9.85031 18.5803 9.89616 18.5436 9.94201 18.5038C10.5381 18.5008 11.1372 18.5008 11.7363 18.5008C12.3079 18.5008 12.8764 18.5008 13.4419 18.5008C13.6895 18.5008 13.9341 18.5008 14.1817 18.5008C14.252 18.5008 14.3223 18.5008 14.3895 18.5008C14.9672 18.5008 15.4869 18.299 15.8567 17.9322C16.0768 17.7122 16.2358 17.4371 16.3305 17.1314C16.3397 17.1069 16.3458 17.0794 16.3519 17.0519C16.3733 16.9724 16.3886 16.893 16.4008 16.8074C16.4161 16.6973 16.4253 16.5842 16.4253 16.4681V15.2087V13.7476V13.5489C16.5047 13.6131 16.5812 13.6804 16.6606 13.7476C17.0458 14.0716 17.4309 14.4017 17.8038 14.7227C17.9475 14.845 18.0912 14.9672 18.2348 15.0895C18.2379 15.0926 18.2379 15.0926 18.241 15.0956C18.4121 15.2362 18.5864 15.3065 18.7728 15.3065C18.8767 15.3065 18.9807 15.2851 19.0815 15.2393C19.0846 15.2393 19.0846 15.2362 19.0877 15.2362C19.2558 15.1568 19.5401 14.955 19.5401 14.4904C19.5401 14.4873 19.5401 14.4843 19.5401 14.4782C19.537 14.359 19.537 14.2397 19.5401 14.1175C19.5401 14.0533 19.5401 13.9891 19.5401 13.9249V13.3839C20.0475 13.1638 20.4112 12.7817 20.6038 12.259C20.6221 12.2101 20.6374 12.1612 20.6527 12.1092V12.1062L20.7047 11.9258C20.7169 11.883 20.723 11.8372 20.723 11.7913V10.697V6.94951C20.723 6.90366 20.7169 6.85781 20.7047 6.81501C20.6955 6.7875 20.6894 6.75999 20.6802 6.73248C20.6619 6.66829 20.6435 6.59799 20.6191 6.52463C20.6191 6.52157 20.616 6.51851 20.616 6.5124C20.3715 5.83381 19.8732 5.39365 19.1732 5.23775C19.161 5.23164 19.1457 5.22553 19.1274 5.21941C19.1121 5.2133 19.0968 5.21024 19.0815 5.20719C19.0632 5.20413 19.0449 5.20107 19.0265 5.19802C19.0082 5.19496 18.9898 5.19496 18.9715 5.19496H17.2475H16.4956C16.3947 5.1919 16.2999 5.21942 16.2205 5.27444ZM15.7253 8.64598C15.7253 8.7927 15.7131 8.93331 15.6886 9.07086C15.6794 9.11977 15.6703 9.16867 15.658 9.21452C15.655 9.22675 15.6519 9.23898 15.6489 9.2512C15.6214 9.35513 15.5877 9.456 15.5449 9.55688C15.5327 9.58439 15.5235 9.60884 15.5113 9.63635C15.4899 9.67914 15.4685 9.72499 15.4471 9.76779C15.4166 9.82892 15.3799 9.89006 15.3432 9.95119C15.2484 9.79835 15.169 9.64246 15.1109 9.48046C15.0712 9.37347 15.0406 9.26649 15.0161 9.15645C15.0039 9.10143 14.9947 9.04641 14.9856 8.98833C14.9703 8.87523 14.9611 8.76213 14.9581 8.64292C15.2118 8.64598 15.4624 8.64598 15.7253 8.64598ZM11.4795 7.59142V7.23378C11.4795 6.87003 11.6354 6.71414 11.9992 6.71414H14.0777C14.3467 6.71414 14.576 6.59799 14.7196 6.40236C14.8022 6.51851 14.9153 6.60716 15.0467 6.66218C14.8878 6.72637 14.7594 6.84252 14.6799 7.00759C14.6096 7.15431 14.579 7.32854 14.576 7.60059H14.307C14.2183 7.60059 14.1297 7.60059 14.041 7.60059C13.9524 7.60059 13.8638 7.60059 13.7721 7.60059C13.6712 7.60059 13.5795 7.60059 13.497 7.60364H13.4939C13.4205 7.6067 13.3502 7.61587 13.286 7.63421C13.2585 7.64032 13.2341 7.64949 13.2096 7.65866C13.176 7.67089 13.1454 7.68617 13.1149 7.70146C13.0843 7.71674 13.0568 7.73814 13.0293 7.75648C13.0232 7.76259 13.014 7.76565 13.0079 7.77176C12.9651 7.80538 12.9254 7.84512 12.8887 7.89097C12.7909 8.01324 12.7328 8.16913 12.7267 8.34336C12.7267 8.34642 12.7267 8.35253 12.7267 8.35559C12.7267 8.46869 12.7511 8.57567 12.7939 8.67349C12.8031 8.69488 12.8153 8.71628 12.8245 8.73462C12.8367 8.75602 12.8489 8.77436 12.8612 8.7927C12.8734 8.81104 12.8887 8.82938 12.904 8.84772C12.9101 8.85689 12.9192 8.86606 12.9284 8.87217C12.9406 8.8844 12.9529 8.89663 12.9651 8.90885C12.9773 8.92108 12.9895 8.93331 13.0048 8.94248C13.014 8.94859 13.0232 8.95776 13.0323 8.96387C13.0598 8.98527 13.0904 9.00361 13.121 9.02195C13.1302 9.02807 13.1424 9.03418 13.1515 9.03724C13.2371 9.08003 13.3319 9.10754 13.4358 9.11671C13.4419 9.11671 13.448 9.11671 13.4511 9.11977C13.5153 9.12588 13.5734 9.12588 13.6131 9.12588C13.6345 9.12588 13.6559 9.12588 13.6773 9.12588C13.6956 9.12588 13.7109 9.12588 13.7293 9.12588H13.9463C14.0074 9.53548 14.1358 9.92368 14.3314 10.2905C14.0808 10.4525 13.8057 10.5534 13.497 10.5992C13.4939 10.5992 13.4908 10.5992 13.4878 10.5992H13.4847C13.2371 10.642 13.0415 10.7765 12.9315 10.963C12.9131 10.9935 12.8978 11.0271 12.8826 11.0608C12.8703 11.0944 12.8581 11.1311 12.8489 11.1647C12.8459 11.1769 12.8428 11.1892 12.8398 11.2014C12.8275 11.2625 12.8245 11.3267 12.8275 11.394C12.8306 11.4215 12.8306 11.4459 12.8367 11.4734C12.8703 11.7057 13.0018 11.8953 13.1882 12.0053H11.9717C11.9075 12.0053 11.8494 11.9992 11.8005 11.987C11.7485 11.9747 11.7057 11.9564 11.666 11.935C11.6415 11.9197 11.6171 11.9014 11.5957 11.88C11.5743 11.8586 11.5559 11.8372 11.5407 11.8097C11.4948 11.7332 11.4734 11.6293 11.4734 11.504V7.59142H11.4795ZM10.9018 13.7568C10.9263 13.6926 10.9507 13.6315 10.9752 13.5673C10.9996 13.5031 11.0241 13.4389 11.0485 13.3747C11.0974 13.5031 11.1464 13.6315 11.1953 13.7568C11.3298 14.1144 11.4612 14.4568 11.5957 14.8113C11.2289 14.8113 10.8743 14.8113 10.5014 14.8113C10.6328 14.4598 10.7643 14.1144 10.9018 13.7568ZM14.9122 13.7568V15.2179V16.4772C14.9122 16.52 14.9092 16.5598 14.9061 16.5934C14.9 16.6301 14.8939 16.6637 14.8847 16.6943C14.8755 16.7248 14.8633 16.7524 14.848 16.7799C14.8327 16.8043 14.8144 16.8288 14.793 16.8471C14.7838 16.8563 14.7716 16.8654 14.7594 16.8746C14.741 16.8899 14.7196 16.9021 14.6952 16.9144C14.6616 16.9296 14.6279 16.9419 14.5882 16.951C14.5362 16.9633 14.4782 16.9663 14.414 16.9663C14.3009 16.9663 14.1847 16.9663 14.0716 16.9663C13.5581 16.9663 13.0415 16.9663 12.5219 16.9663C11.8402 16.9663 11.1555 16.9663 10.4739 16.9633C10.2477 16.9633 10.0184 16.9633 9.79223 16.9602C9.77389 16.9602 9.75861 16.9602 9.74027 16.9602C9.70664 16.9602 9.67302 16.9633 9.64245 16.9694C9.59355 16.9755 9.5477 16.9847 9.50185 16.9969C9.47128 17.0061 9.44071 17.0152 9.4132 17.0275C9.38263 17.0397 9.35512 17.0519 9.32761 17.0641C9.3001 17.0794 9.27259 17.0947 9.24508 17.11C9.21757 17.1253 9.19006 17.1436 9.16561 17.165C9.1381 17.1833 9.11364 17.2047 9.08613 17.2292C9.07391 17.2414 9.05862 17.2537 9.0464 17.2659C8.82631 17.4554 8.60317 17.648 8.38309 17.8375C8.38309 17.81 8.38309 17.7825 8.38309 17.7519C8.38309 17.7488 8.38309 17.7488 8.38309 17.7458C8.37392 17.3117 8.07742 16.9999 7.64643 16.9663C7.5211 16.9571 7.42329 16.9235 7.35298 16.8685C7.28879 16.8196 7.246 16.7523 7.22155 16.6668C7.21543 16.6484 7.21238 16.6301 7.20932 16.6117C7.2032 16.5751 7.20015 16.5353 7.20015 16.4895V16.3519V12.1459C7.20015 11.8341 7.36521 11.6721 7.67394 11.6721H7.98266H9.96952C9.97563 11.7608 9.9848 11.8494 10.0031 11.938C10.0093 11.9686 10.0154 11.9992 10.0215 12.0297C10.0215 12.0297 10.0215 12.0297 10.0215 12.0328C10.0521 12.1581 10.0979 12.2773 10.1468 12.3874C10.1774 12.4546 10.2079 12.5188 10.2385 12.583C10.2416 12.5891 10.2446 12.5952 10.2477 12.6013C10.2171 12.6778 10.1896 12.7572 10.159 12.8367C10.1254 12.9284 10.0887 13.0201 10.0551 13.1118C9.99703 13.2616 9.93895 13.4144 9.88088 13.5673C9.86254 13.6131 9.8442 13.659 9.82891 13.7079C9.8228 13.7262 9.81669 13.7446 9.80752 13.7598C9.7097 14.0166 9.60883 14.2764 9.51101 14.5362C9.42237 14.7655 9.33678 14.9947 9.24814 15.224C9.21146 15.3188 9.17783 15.4105 9.14115 15.5052V15.5083C9.1381 15.5144 9.13504 15.5205 9.13504 15.5266C9.12893 15.5419 9.11976 15.5602 9.11364 15.5816C9.10447 15.603 9.09836 15.6275 9.08919 15.655C9.08308 15.6733 9.08002 15.6886 9.07696 15.707C9.07391 15.7161 9.07391 15.7253 9.07085 15.7345C9.06474 15.7773 9.05862 15.817 9.05862 15.8598V15.8629C9.05862 15.8873 9.05862 15.9087 9.06168 15.9332C9.06779 16.0035 9.08308 16.0707 9.10753 16.1349C9.1167 16.1563 9.12587 16.1777 9.13504 16.1991C9.15032 16.2327 9.17172 16.2633 9.19006 16.2938C9.20534 16.3183 9.22369 16.3397 9.24203 16.3611C9.26037 16.3825 9.27871 16.4008 9.3001 16.4222C9.36735 16.4864 9.44682 16.5384 9.53547 16.5751C9.54769 16.5812 9.55992 16.5842 9.57215 16.5903C9.60883 16.6026 9.64551 16.6148 9.68219 16.6209C9.7311 16.6301 9.78306 16.6362 9.83197 16.6362C9.92367 16.6362 10.0154 16.6179 10.0979 16.5873C10.1132 16.5812 10.1315 16.5751 10.1468 16.5659C10.1743 16.5537 10.1988 16.5384 10.2232 16.5231C10.2446 16.5109 10.266 16.4956 10.2844 16.4803C10.3424 16.4375 10.3913 16.3855 10.4341 16.3244C10.4555 16.2938 10.4739 16.2633 10.4922 16.2297C10.5014 16.2144 10.5075 16.196 10.5167 16.1777C10.5258 16.1532 10.5381 16.1288 10.5472 16.1043C10.5686 16.0554 10.59 16.0035 10.6114 15.9484C10.6237 15.9209 10.6328 15.8934 10.6451 15.8629C10.7154 15.8629 10.7857 15.8629 10.8529 15.8629C10.9232 15.8629 10.9935 15.8629 11.0608 15.8629C11.1983 15.8629 11.3389 15.8629 11.4795 15.8629C11.4887 15.8873 11.4979 15.9087 11.507 15.9301C11.5284 15.9851 11.5498 16.0371 11.5682 16.089C11.5682 16.0921 11.5682 16.0921 11.5712 16.0952C11.5865 16.138 11.6049 16.1777 11.6263 16.2144C11.6568 16.2694 11.6935 16.3214 11.7332 16.3672C11.7455 16.3825 11.7607 16.3978 11.773 16.41C11.8005 16.4375 11.8311 16.465 11.8616 16.4864C11.9869 16.5781 12.1337 16.6301 12.2926 16.6301C12.3935 16.6301 12.4913 16.6087 12.5861 16.5689C12.6227 16.5537 12.6564 16.5384 12.6869 16.517C13.0109 16.3244 13.1393 15.9423 12.9957 15.548V15.545C12.9895 15.5297 12.9834 15.5113 12.9773 15.496C12.9437 15.4043 12.907 15.3126 12.8734 15.2179C12.7267 14.8297 12.5799 14.4384 12.4363 14.0594C12.3996 13.9585 12.3599 13.8577 12.3232 13.7568C12.3079 13.7201 12.2957 13.6804 12.2804 13.6437C12.2651 13.607 12.2529 13.5673 12.2376 13.5306H13.3166H14.7899H14.9122V13.7568ZM16.5078 12.0145H14.9153H14.2031C14.4568 11.9442 14.6982 11.8463 14.9305 11.721C15.0009 11.6813 15.0712 11.6415 15.1384 11.5988C15.2057 11.556 15.2729 11.5101 15.3401 11.4612C15.4685 11.559 15.5969 11.6446 15.7283 11.718C15.8598 11.7913 15.9912 11.8525 16.1288 11.9044C16.1349 11.9075 16.141 11.9075 16.1471 11.9105C16.2633 11.9472 16.3825 11.9839 16.5078 12.0145ZM18.7484 6.72026C19.0204 6.72026 19.1977 6.89754 19.1977 7.16959V9.67914V11.5774C19.1977 11.611 19.1946 11.6415 19.1916 11.6721C19.1855 11.7027 19.1794 11.7302 19.1702 11.7546C19.1305 11.8586 19.0571 11.938 18.9501 11.9839C18.8981 12.0053 18.837 12.0206 18.7698 12.0236C18.5986 12.0359 18.4488 12.0848 18.3327 12.1704C18.2746 12.2131 18.2226 12.2621 18.1768 12.3171C18.0759 12.4485 18.0178 12.6197 18.0178 12.8184V12.8917C17.7794 12.69 17.5379 12.4821 17.2995 12.2773C17.2659 12.2468 17.2353 12.2223 17.1986 12.1979C17.165 12.1734 17.1283 12.152 17.0916 12.1337C17.0947 12.1337 17.0977 12.1337 17.1008 12.1337C17.1253 12.1337 17.1467 12.1337 17.1681 12.1306C17.2139 12.1276 17.2567 12.1184 17.2995 12.1062C17.3209 12.1001 17.3423 12.0939 17.3637 12.0848C17.4034 12.0695 17.4432 12.0481 17.4829 12.0267C17.5012 12.0145 17.5196 12.0022 17.5379 11.99C17.5715 11.9625 17.6052 11.935 17.6357 11.9014C17.7397 11.7883 17.813 11.6415 17.8344 11.4765C17.8405 11.4276 17.8436 11.3787 17.8405 11.3298C17.8252 10.9966 17.6021 10.7184 17.2598 10.6298C17.2536 10.6298 17.2506 10.6267 17.2445 10.6267C17.2261 10.6237 17.2108 10.6206 17.1956 10.6175C17.1803 10.6145 17.165 10.6114 17.1528 10.6114C17.1497 10.6114 17.1467 10.6114 17.1436 10.6114C17.1375 10.6114 17.1314 10.6084 17.1283 10.6084C17.1253 10.6084 17.1253 10.6084 17.1222 10.6084C17.113 10.6053 17.1069 10.6053 17.0977 10.6023C17.0641 10.5962 17.0274 10.59 16.9938 10.5809C16.789 10.535 16.6026 10.4617 16.4253 10.3577C16.3947 10.3394 16.3672 10.3211 16.3366 10.3027C16.3611 10.2569 16.3855 10.211 16.4069 10.1652C16.4436 10.0918 16.4742 10.0154 16.5047 9.94202C16.5384 9.85949 16.5659 9.78001 16.5934 9.69443C16.6515 9.51408 16.6943 9.32762 16.7218 9.13811H17.0702C17.11 9.13811 17.1528 9.13811 17.2017 9.13505C17.217 9.13505 17.2322 9.13199 17.2506 9.13199C17.2536 9.13199 17.2598 9.13199 17.2628 9.13199C17.3637 9.11671 17.4584 9.08614 17.544 9.04335C17.5654 9.03112 17.5868 9.0189 17.6052 9.00667C17.6541 8.97305 17.6999 8.93636 17.7397 8.89357C17.7549 8.87829 17.7702 8.85995 17.7855 8.84161C17.7916 8.83244 17.8008 8.82327 17.8069 8.8141C17.8191 8.79576 17.8344 8.77742 17.8436 8.75602C17.8619 8.72545 17.8772 8.69488 17.8894 8.66126C17.8986 8.63986 17.9047 8.61847 17.9139 8.59401C17.92 8.57262 17.9261 8.54816 17.9322 8.52677C17.9383 8.50231 17.9414 8.48092 17.9445 8.45646C17.9475 8.41978 17.9506 8.3831 17.9475 8.34642C17.9383 8.0866 17.8069 7.86346 17.6082 7.73508C17.5685 7.71063 17.5257 7.68617 17.4798 7.66783C17.4462 7.65561 17.4095 7.64338 17.3729 7.63421C17.3117 7.61893 17.2475 7.61281 17.1803 7.61281C17.0916 7.61281 16.9999 7.61281 16.9113 7.60976C16.7309 7.60976 16.5506 7.6067 16.3733 7.6067C16.2847 7.6067 16.196 7.6067 16.1043 7.6067C16.1043 7.60364 16.1043 7.60059 16.1043 7.59753C16.1013 7.36828 16.0799 7.17876 16.0004 7.0137C15.9484 6.90977 15.8414 6.75082 15.6336 6.67135C15.765 6.61938 15.8781 6.53074 15.9607 6.41459C16.1043 6.61021 16.3336 6.72943 16.6026 6.72943H18.7484V6.72026Z" fill="white"/>
</svg>
