<svg width="20" height="20" viewBox="0 0 20 20" fill="none" xmlns="http://www.w3.org/2000/svg">
<g clip-path="url(#clip0_2081:396)">
<path fill-rule="evenodd" clip-rule="evenodd" d="M12.7273 13.9712V12.3682C12.7273 11.8452 12.32 11.4208 11.8182 11.4208C8.32817 11.4208 4.82271 12.7689 2.36634 14.9053C3.58907 10.0812 6.43089 7.74676 11.9845 6.66767C12.4154 6.5843 12.7273 6.19303 12.7273 5.73638V4.13338L17.7618 9.05228L12.7273 13.9712ZM19.7127 8.36163L12.44 1.25612C12.1754 0.997477 11.7891 0.928316 11.4573 1.07801C11.1245 1.2277 10.9091 1.56971 10.9091 1.94677V4.96046C3.97453 6.51514 0.798158 10.3284 0.00542926 17.9503C-0.0409344 18.3927 0.213611 18.8077 0.617248 18.9498C0.713612 18.9839 0.811794 19 0.909067 19C1.21998 19 1.51816 18.8333 1.68634 18.5443C3.34816 15.6888 7.05089 13.633 10.9091 13.3497V16.1578C10.9091 16.5358 11.1245 16.8769 11.4573 17.0275C11.7891 17.1781 12.1764 17.108 12.44 16.8494L19.7127 9.74389C19.8964 9.56483 20 9.31377 20 9.05228C20 8.7908 19.8964 8.54069 19.7127 8.36163Z" fill="white"/>
</g>
<defs>
<clipPath id="clip0_2081:396">
<rect width="20" height="20" fill="white"/>
</clipPath>
</defs>
</svg>
